<svg width="70" height="70" viewBox="0 0 70 70" fill="none" xmlns="http://www.w3.org/2000/svg">
<circle cx="35" cy="35" r="24.7487" transform="rotate(135 35 35)" fill="#EFEFEF"/>
<path d="M48.1248 25.8437C46.0029 22.8035 42.8911 20.5943 39.3209 19.5938C35.7507 18.5932 31.9439 18.8633 28.5508 20.3579C25.1577 21.8525 22.389 24.4788 20.7178 27.7882C19.0465 31.0975 18.5765 34.8844 19.388 38.5018C20.1995 42.1192 22.2421 45.3426 25.1668 47.6211C28.0916 49.8997 31.717 51.0921 35.4234 50.9945C39.1299 50.8968 42.6874 49.5153 45.4882 47.0859C48.2889 44.6566 50.159 41.3301 50.7789 37.675C51.4725 33.536 50.5199 29.2899 48.1248 25.8437V25.8437ZM49.8278 37.4981C49.0617 41.3365 46.8023 44.7136 43.5464 46.8867C40.2905 49.0597 36.3047 49.8509 32.4656 49.0862C28.6837 48.3375 25.3343 46.1642 23.1098 43.0157C21.7055 41.0015 20.8231 38.6703 20.5416 36.2311C20.2601 33.792 20.5883 31.3211 21.4968 29.04C22.4053 26.7589 23.8658 24.7388 25.7472 23.1609C27.6286 21.583 29.8723 20.4965 32.277 19.9989C34.6817 19.5013 37.1723 19.6082 39.5255 20.3098C41.8788 21.0114 44.0212 22.286 45.7606 24.0192C47.5 25.7524 48.7821 27.89 49.4919 30.2405C50.2018 32.5911 50.3172 35.081 49.8278 37.4871V37.4981ZM42.8608 34.8665C42.8501 34.9092 42.828 34.9483 42.7968 34.9794C42.7657 35.0106 42.7266 35.0327 42.6839 35.0434C41.4466 35.3651 40.1856 35.587 38.9128 35.7068C38.0171 35.8063 37.1102 35.8506 36.2145 35.8837C36.2145 36.7794 36.2145 37.6861 36.0707 38.5817C35.9528 39.8615 35.7159 41.1275 35.363 42.3634C35.3541 42.395 35.339 42.4244 35.3185 42.4501C35.2979 42.4757 35.2724 42.4968 35.2435 42.5123C35.2146 42.5278 35.1828 42.5373 35.1501 42.5402C35.1174 42.5431 35.0845 42.5394 35.0533 42.5292C35.0144 42.5169 34.979 42.4954 34.9501 42.4666C34.9212 42.4377 34.8997 42.4023 34.8874 42.3634C34.5327 41.1285 34.2994 39.8619 34.1907 38.5817C34.0912 37.6861 34.047 36.7904 34.0359 35.8948C33.1401 35.8948 32.2444 35.8395 31.3486 35.7511C30.0687 35.6332 28.8025 35.3963 27.5665 35.0434C27.5349 35.0346 27.5054 35.0194 27.4798 34.9989C27.4542 34.9784 27.433 34.9529 27.4175 34.924C27.402 34.895 27.3925 34.8633 27.3896 34.8306C27.3867 34.7979 27.3905 34.765 27.4006 34.7338C27.4129 34.6949 27.4344 34.6595 27.4633 34.6306C27.4922 34.6017 27.5276 34.5802 27.5665 34.5679C28.8025 34.215 30.0687 33.9781 31.3486 33.8602C32.2444 33.7607 33.1512 33.7276 34.047 33.7165C34.047 32.8209 34.1244 31.9252 34.2239 31.0296C34.3428 29.7532 34.5647 28.4885 34.8874 27.2479C34.9078 27.1853 34.9509 27.1324 35.0081 27.0997C35.0653 27.067 35.1327 27.0568 35.1971 27.071C35.2368 27.0852 35.2726 27.1087 35.3014 27.1394C35.3303 27.1702 35.3513 27.2074 35.363 27.2479C35.691 28.4874 35.913 29.7525 36.0265 31.0296C36.126 31.9252 36.1702 32.8319 36.2034 33.7276C37.1102 33.7276 38.006 33.805 38.9128 33.9045C40.1856 34.0243 41.4466 34.2462 42.6839 34.5679C42.7457 34.586 42.7983 34.6269 42.8312 34.6823C42.864 34.7377 42.8746 34.8036 42.8608 34.8665V34.8665Z" fill="#2D2D2D"/>
</svg>
