<svg width="322" height="99" viewBox="0 0 322 99" fill="none" xmlns="http://www.w3.org/2000/svg">
<rect width="322" height="99" rx="15" fill="black"/>
<path d="M119.832 71.024H111.684L110.284 75H106.952L113.924 55.512H117.62L124.592 75H121.232L119.832 71.024ZM118.936 68.42L115.772 59.376L112.58 68.42H118.936ZM130.815 61.84C131.357 61.1307 132.094 60.5333 133.027 60.048C133.961 59.5627 135.015 59.32 136.191 59.32C137.535 59.32 138.758 59.656 139.859 60.328C140.979 60.9813 141.857 61.9053 142.491 63.1C143.126 64.2947 143.443 65.6667 143.443 67.216C143.443 68.7653 143.126 70.156 142.491 71.388C141.857 72.6013 140.979 73.5533 139.859 74.244C138.758 74.916 137.535 75.252 136.191 75.252C135.015 75.252 133.97 75.0187 133.055 74.552C132.141 74.0667 131.394 73.4693 130.815 72.76V82.336H127.623V59.572H130.815V61.84ZM140.195 67.216C140.195 66.152 139.971 65.2373 139.523 64.472C139.094 63.688 138.515 63.1 137.787 62.708C137.078 62.2973 136.313 62.092 135.491 62.092C134.689 62.092 133.923 62.2973 133.195 62.708C132.486 63.1187 131.907 63.716 131.459 64.5C131.03 65.284 130.815 66.208 130.815 67.272C130.815 68.336 131.03 69.2693 131.459 70.072C131.907 70.856 132.486 71.4533 133.195 71.864C133.923 72.2747 134.689 72.48 135.491 72.48C136.313 72.48 137.078 72.2747 137.787 71.864C138.515 71.4347 139.094 70.8187 139.523 70.016C139.971 69.2133 140.195 68.28 140.195 67.216ZM149.792 61.84C150.333 61.1307 151.071 60.5333 152.004 60.048C152.937 59.5627 153.992 59.32 155.168 59.32C156.512 59.32 157.735 59.656 158.836 60.328C159.956 60.9813 160.833 61.9053 161.468 63.1C162.103 64.2947 162.42 65.6667 162.42 67.216C162.42 68.7653 162.103 70.156 161.468 71.388C160.833 72.6013 159.956 73.5533 158.836 74.244C157.735 74.916 156.512 75.252 155.168 75.252C153.992 75.252 152.947 75.0187 152.032 74.552C151.117 74.0667 150.371 73.4693 149.792 72.76V82.336H146.6V59.572H149.792V61.84ZM159.172 67.216C159.172 66.152 158.948 65.2373 158.5 64.472C158.071 63.688 157.492 63.1 156.764 62.708C156.055 62.2973 155.289 62.092 154.468 62.092C153.665 62.092 152.9 62.2973 152.172 62.708C151.463 63.1187 150.884 63.716 150.436 64.5C150.007 65.284 149.792 66.208 149.792 67.272C149.792 68.336 150.007 69.2693 150.436 70.072C150.884 70.856 151.463 71.4533 152.172 71.864C152.9 72.2747 153.665 72.48 154.468 72.48C155.289 72.48 156.055 72.2747 156.764 71.864C157.492 71.4347 158.071 70.8187 158.5 70.016C158.948 69.2133 159.172 68.28 159.172 67.216ZM179.262 75.196C177.955 75.196 176.779 74.972 175.734 74.524C174.689 74.0573 173.867 73.404 173.27 72.564C172.673 71.724 172.374 70.744 172.374 69.624H175.79C175.865 70.464 176.191 71.1547 176.77 71.696C177.367 72.2373 178.198 72.508 179.262 72.508C180.363 72.508 181.222 72.2467 181.838 71.724C182.454 71.1827 182.762 70.492 182.762 69.652C182.762 68.9987 182.566 68.4667 182.174 68.056C181.801 67.6453 181.325 67.328 180.746 67.104C180.186 66.88 179.402 66.6373 178.394 66.376C177.125 66.04 176.089 65.704 175.286 65.368C174.502 65.0133 173.83 64.472 173.27 63.744C172.71 63.016 172.43 62.0453 172.43 60.832C172.43 59.712 172.71 58.732 173.27 57.892C173.83 57.052 174.614 56.408 175.622 55.96C176.63 55.512 177.797 55.288 179.122 55.288C181.007 55.288 182.547 55.764 183.742 56.716C184.955 57.6493 185.627 58.9373 185.758 60.58H182.23C182.174 59.8707 181.838 59.264 181.222 58.76C180.606 58.256 179.794 58.004 178.786 58.004C177.871 58.004 177.125 58.2373 176.546 58.704C175.967 59.1707 175.678 59.8427 175.678 60.72C175.678 61.3173 175.855 61.812 176.21 62.204C176.583 62.5773 177.05 62.876 177.61 63.1C178.17 63.324 178.935 63.5667 179.906 63.828C181.194 64.1827 182.239 64.5373 183.042 64.892C183.863 65.2467 184.554 65.7973 185.114 66.544C185.693 67.272 185.982 68.252 185.982 69.484C185.982 70.4733 185.711 71.4067 185.17 72.284C184.647 73.1613 183.873 73.8707 182.846 74.412C181.838 74.9347 180.643 75.196 179.262 75.196ZM193.472 62.176V70.716C193.472 71.2947 193.603 71.7147 193.864 71.976C194.144 72.2187 194.611 72.34 195.264 72.34H197.224V75H194.704C193.267 75 192.166 74.664 191.4 73.992C190.635 73.32 190.252 72.228 190.252 70.716V62.176H188.432V59.572H190.252V55.736H193.472V59.572H197.224V62.176H193.472ZM206.858 75.252C205.402 75.252 204.086 74.9253 202.91 74.272C201.734 73.6 200.81 72.6667 200.138 71.472C199.466 70.2587 199.13 68.8587 199.13 67.272C199.13 65.704 199.476 64.3133 200.166 63.1C200.857 61.8867 201.8 60.9533 202.994 60.3C204.189 59.6467 205.524 59.32 206.998 59.32C208.473 59.32 209.808 59.6467 211.002 60.3C212.197 60.9533 213.14 61.8867 213.83 63.1C214.521 64.3133 214.866 65.704 214.866 67.272C214.866 68.84 214.512 70.2307 213.802 71.444C213.093 72.6573 212.122 73.6 210.89 74.272C209.677 74.9253 208.333 75.252 206.858 75.252ZM206.858 72.48C207.68 72.48 208.445 72.284 209.154 71.892C209.882 71.5 210.47 70.912 210.918 70.128C211.366 69.344 211.59 68.392 211.59 67.272C211.59 66.152 211.376 65.2093 210.946 64.444C210.517 63.66 209.948 63.072 209.238 62.68C208.529 62.288 207.764 62.092 206.942 62.092C206.121 62.092 205.356 62.288 204.646 62.68C203.956 63.072 203.405 63.66 202.994 64.444C202.584 65.2093 202.378 66.152 202.378 67.272C202.378 68.9333 202.798 70.2213 203.638 71.136C204.497 72.032 205.57 72.48 206.858 72.48ZM221.214 61.812C221.681 61.028 222.297 60.4213 223.062 59.992C223.846 59.544 224.77 59.32 225.834 59.32V62.624H225.022C223.771 62.624 222.819 62.9413 222.166 63.576C221.531 64.2107 221.214 65.312 221.214 66.88V75H218.022V59.572H221.214V61.812ZM242.908 66.908C242.908 67.4867 242.871 68.0093 242.796 68.476H231.008C231.101 69.708 231.559 70.6973 232.38 71.444C233.201 72.1907 234.209 72.564 235.404 72.564C237.121 72.564 238.335 71.8453 239.044 70.408H242.488C242.021 71.8267 241.172 72.9933 239.94 73.908C238.727 74.804 237.215 75.252 235.404 75.252C233.929 75.252 232.604 74.9253 231.428 74.272C230.271 73.6 229.356 72.6667 228.684 71.472C228.031 70.2587 227.704 68.8587 227.704 67.272C227.704 65.6853 228.021 64.2947 228.656 63.1C229.309 61.8867 230.215 60.9533 231.372 60.3C232.548 59.6467 233.892 59.32 235.404 59.32C236.86 59.32 238.157 59.6373 239.296 60.272C240.435 60.9067 241.321 61.8027 241.956 62.96C242.591 64.0987 242.908 65.4147 242.908 66.908ZM239.576 65.9C239.557 64.724 239.137 63.7813 238.316 63.072C237.495 62.3627 236.477 62.008 235.264 62.008C234.163 62.008 233.22 62.3627 232.436 63.072C231.652 63.7627 231.185 64.7053 231.036 65.9H239.576Z" fill="white"/>
<path d="M112.027 21.321C113.651 21.321 115.044 21.615 116.206 22.203C117.368 22.791 118.257 23.638 118.873 24.744C119.489 25.85 119.797 27.166 119.797 28.692C119.797 30.204 119.489 31.513 118.873 32.619C118.257 33.711 117.368 34.551 116.206 35.139C115.044 35.713 113.651 36 112.027 36H107.68V21.321H112.027ZM112.027 34.782C114.071 34.782 115.625 34.25 116.689 33.186C117.767 32.108 118.306 30.61 118.306 28.692C118.306 26.76 117.767 25.255 116.689 24.177C115.625 23.085 114.071 22.539 112.027 22.539H109.15V34.782H112.027ZM129.101 36.147C127.743 36.147 126.511 35.832 125.405 35.202C124.299 34.558 123.424 33.669 122.78 32.535C122.15 31.387 121.835 30.092 121.835 28.65C121.835 27.208 122.15 25.92 122.78 24.786C123.424 23.638 124.299 22.749 125.405 22.119C126.511 21.475 127.743 21.153 129.101 21.153C130.473 21.153 131.712 21.475 132.818 22.119C133.924 22.749 134.792 23.638 135.422 24.786C136.052 25.92 136.367 27.208 136.367 28.65C136.367 30.092 136.052 31.387 135.422 32.535C134.792 33.669 133.924 34.558 132.818 35.202C131.712 35.832 130.473 36.147 129.101 36.147ZM129.101 34.866C130.193 34.866 131.173 34.614 132.041 34.11C132.909 33.606 133.595 32.885 134.099 31.947C134.603 30.995 134.855 29.896 134.855 28.65C134.855 27.404 134.603 26.312 134.099 25.374C133.595 24.436 132.909 23.715 132.041 23.211C131.173 22.707 130.193 22.455 129.101 22.455C128.009 22.455 127.029 22.707 126.161 23.211C125.293 23.715 124.607 24.436 124.103 25.374C123.599 26.312 123.347 27.404 123.347 28.65C123.347 29.896 123.599 30.995 124.103 31.947C124.607 32.885 125.293 33.606 126.161 34.11C127.029 34.614 128.009 34.866 129.101 34.866ZM156.865 21.321L152.707 36H151.069L147.373 23.484L143.593 36L141.997 36.021L137.923 21.321H139.498L142.858 34.194L146.617 21.321H148.255L151.909 34.194L155.29 21.321H156.865ZM170.181 36H168.711L160.584 23.652V36H159.114V21.321H160.584L168.711 33.648V21.321H170.181V36ZM174.98 34.803H180.251V36H173.51V21.321H174.98V34.803ZM188.943 36.147C187.585 36.147 186.353 35.832 185.247 35.202C184.141 34.558 183.266 33.669 182.622 32.535C181.992 31.387 181.677 30.092 181.677 28.65C181.677 27.208 181.992 25.92 182.622 24.786C183.266 23.638 184.141 22.749 185.247 22.119C186.353 21.475 187.585 21.153 188.943 21.153C190.315 21.153 191.554 21.475 192.66 22.119C193.766 22.749 194.634 23.638 195.264 24.786C195.894 25.92 196.209 27.208 196.209 28.65C196.209 30.092 195.894 31.387 195.264 32.535C194.634 33.669 193.766 34.558 192.66 35.202C191.554 35.832 190.315 36.147 188.943 36.147ZM188.943 34.866C190.035 34.866 191.015 34.614 191.883 34.11C192.751 33.606 193.437 32.885 193.941 31.947C194.445 30.995 194.697 29.896 194.697 28.65C194.697 27.404 194.445 26.312 193.941 25.374C193.437 24.436 192.751 23.715 191.883 23.211C191.015 22.707 190.035 22.455 188.943 22.455C187.851 22.455 186.871 22.707 186.003 23.211C185.135 23.715 184.449 24.436 183.945 25.374C183.441 26.312 183.189 27.404 183.189 28.65C183.189 29.896 183.441 30.995 183.945 31.947C184.449 32.885 185.135 33.606 186.003 34.11C186.871 34.614 187.851 34.866 188.943 34.866ZM207.404 32.514H200.726L199.445 36H197.891L203.246 21.51H204.905L210.239 36H208.685L207.404 32.514ZM206.963 31.296L204.065 23.358L201.167 31.296H206.963ZM216.945 21.321C218.569 21.321 219.962 21.615 221.124 22.203C222.286 22.791 223.175 23.638 223.791 24.744C224.407 25.85 224.715 27.166 224.715 28.692C224.715 30.204 224.407 31.513 223.791 32.619C223.175 33.711 222.286 34.551 221.124 35.139C219.962 35.713 218.569 36 216.945 36H212.598V21.321H216.945ZM216.945 34.782C218.989 34.782 220.543 34.25 221.607 33.186C222.685 32.108 223.224 30.61 223.224 28.692C223.224 26.76 222.685 25.255 221.607 24.177C220.543 23.085 218.989 22.539 216.945 22.539H214.068V34.782H216.945ZM239.782 36.147C238.424 36.147 237.192 35.832 236.086 35.202C234.98 34.558 234.105 33.669 233.461 32.535C232.831 31.387 232.516 30.092 232.516 28.65C232.516 27.208 232.831 25.92 233.461 24.786C234.105 23.638 234.98 22.749 236.086 22.119C237.192 21.475 238.424 21.153 239.782 21.153C241.154 21.153 242.393 21.475 243.499 22.119C244.605 22.749 245.473 23.638 246.103 24.786C246.733 25.92 247.048 27.208 247.048 28.65C247.048 30.092 246.733 31.387 246.103 32.535C245.473 33.669 244.605 34.558 243.499 35.202C242.393 35.832 241.154 36.147 239.782 36.147ZM239.782 34.866C240.874 34.866 241.854 34.614 242.722 34.11C243.59 33.606 244.276 32.885 244.78 31.947C245.284 30.995 245.536 29.896 245.536 28.65C245.536 27.404 245.284 26.312 244.78 25.374C244.276 24.436 243.59 23.715 242.722 23.211C241.854 22.707 240.874 22.455 239.782 22.455C238.69 22.455 237.71 22.707 236.842 23.211C235.974 23.715 235.288 24.436 234.784 25.374C234.28 26.312 234.028 27.404 234.028 28.65C234.028 29.896 234.28 30.995 234.784 31.947C235.288 32.885 235.974 33.606 236.842 34.11C237.71 34.614 238.69 34.866 239.782 34.866ZM260.805 36H259.335L251.208 23.652V36H249.738V21.321H251.208L259.335 33.648V21.321H260.805V36ZM278.486 21.321V22.539H274.412V36H272.942V22.539H268.847V21.321H278.486ZM291.706 21.321V36H290.236V29.133H282.277V36H280.807V21.321H282.277V27.915H290.236V21.321H291.706ZM296.53 22.518V27.999H302.095V29.217H296.53V34.782H302.725V36H295.06V21.3H302.725V22.518H296.53Z" fill="white"/>
<path d="M58.5624 21.8526C60.0482 20.1401 61.1812 18.1509 61.8961 15.9994C62.6111 13.8478 62.8939 11.5762 62.7285 9.31494C58.1669 9.68316 53.9325 11.8286 50.9376 15.289C49.5034 16.9475 48.4166 18.8769 47.7415 20.963C47.0664 23.049 46.8167 25.2494 47.0073 27.4337C49.2324 27.4522 51.432 26.9585 53.4357 25.9907C55.4394 25.0229 57.1936 23.607 58.5624 21.8526ZM68.4668 51.0941C68.4931 48.0825 69.2864 45.1272 70.7718 42.5072C72.2571 39.8872 74.3856 37.6888 76.9562 36.1196C75.3339 33.782 73.1892 31.8546 70.6923 30.4902C68.1954 29.1257 65.4149 28.3618 62.5713 28.259C56.44 27.6302 50.7804 31.8356 47.5182 31.8356C44.2561 31.8356 39.6576 28.3376 34.5482 28.4162C31.208 28.5263 27.9532 29.5001 25.1015 31.2429C22.2498 32.9856 19.8984 35.4377 18.2767 38.3599C11.3594 50.3867 16.5081 68.2696 23.4254 77.9774C26.5697 82.7331 30.5 88.1176 35.688 87.9211C40.876 87.7246 42.566 84.6983 48.5794 84.6983C54.5928 84.6983 56.44 87.9211 61.5494 87.8032C66.6588 87.6853 70.2747 82.9296 73.5762 78.1739C75.9149 74.7213 77.7417 70.9484 79 66.9726C75.8851 65.6442 73.2276 63.4325 71.3557 60.6106C69.4838 57.7888 68.4794 54.4804 68.4668 51.0941Z" fill="#F8F7F7"/>
</svg>
