<svg width="60" height="60" viewBox="0 0 60 60" fill="none" xmlns="http://www.w3.org/2000/svg">
<path d="M11.8588 21.1774H11.5412C11.4323 21.1453 11.318 21.1356 11.2052 21.1486C11.0925 21.1616 10.9834 21.1971 10.8847 21.2531C10.7859 21.309 10.6994 21.3843 10.6303 21.4744C10.5612 21.5644 10.5109 21.6675 10.4824 21.7774L1.97647 51.1774C1.95062 51.2134 1.93671 51.2566 1.93671 51.3009C1.93671 51.3452 1.95062 51.3884 1.97647 51.4244C2.00946 51.4568 2.05381 51.4749 2.1 51.4749C2.14619 51.4749 2.19054 51.4568 2.22353 51.4244L5.18823 42.6362C7.59428 42.4461 10.0114 42.8208 12.2471 43.7303C13.3989 44.2043 14.4988 44.7957 15.5294 45.495C16.2702 46.0116 16.9457 46.616 17.5412 47.295L15.6 48.7068L10.7294 52.2362C10.6936 52.103 10.6464 51.9731 10.5882 51.848C8.03004 50.8311 5.22188 50.6217 2.54118 51.248C4.94551 51.3837 7.25517 52.2314 9.17647 53.6832L7.76471 54.7421L3.52941 57.848C2.78823 58.3774 2.25882 59.0127 1.62353 58.7656C1.4598 58.7332 1.30463 58.667 1.16794 58.5712C1.03125 58.4754 0.916045 58.3522 0.829684 58.2094C0.743323 58.0665 0.687707 57.9073 0.66639 57.7417C0.645073 57.5762 0.658523 57.408 0.705882 57.248V57.248L1.51765 54.0362C1.50117 53.9984 1.47403 53.9663 1.43955 53.9437C1.40507 53.9211 1.36475 53.9091 1.32353 53.9091C1.28231 53.9091 1.24199 53.9211 1.20751 53.9437C1.17303 53.9663 1.14588 53.9984 1.12941 54.0362L0.105882 57.2127C0.0254066 57.4605 -0.00340223 57.7222 0.0212352 57.9815C0.0458725 58.2409 0.123433 58.4925 0.249124 58.7207C0.374816 58.949 0.54597 59.149 0.752011 59.3085C0.958053 59.468 1.19461 59.5835 1.44706 59.648C1.70116 59.7175 1.96675 59.7346 2.22766 59.6982C2.48857 59.6618 2.73935 59.5726 2.96471 59.4362L4.05882 58.7303L8.32941 55.9421L16.8353 50.3303C21.1765 47.4362 25.4471 44.4715 29.7176 41.5068C30.0542 41.3612 30.3552 41.1444 30.6 40.8715L33.6706 38.8244L33.9882 38.5421C34.1722 38.2727 34.2454 37.9428 34.1929 37.6209C34.1403 37.299 33.9659 37.0096 33.7059 36.8127C26.4706 31.4127 19.1647 26.295 11.8588 21.1774ZM11.8588 23.3656C17.6941 27.7891 23.5765 32.1538 29.5059 36.4597C26.3653 34.2291 22.7333 32.7884 18.9176 32.2597C15.4626 31.7566 11.9383 32.0462 8.61176 33.1068L11.8588 23.3656ZM17.0471 42.9891C15.7275 42.4728 14.3542 42.1058 12.9529 41.895C10.4216 41.4674 7.82605 41.6243 5.36471 42.3538L8.4 33.3538C11.7222 32.9855 15.0845 33.4088 18.2118 34.5891C21.5658 35.7858 24.5391 37.8573 26.8235 40.5891C24.7412 42.0715 22.6588 43.5538 20.6118 45.0715C19.5274 44.1754 18.298 43.4712 16.9765 42.9891H17.0471ZM30.5647 37.3068L30.9882 37.6244C30.8433 37.4906 30.6761 37.3831 30.4941 37.3068H30.5647ZM23.8941 18.5303C24.4559 15.8274 25.8361 13.3629 27.8471 11.4715C29.9883 9.59563 32.6211 8.37104 35.4353 7.94207L35.6471 10.7303C33.1589 10.6665 30.7061 11.3287 28.5882 12.6362C26.4574 14.0744 24.819 16.1316 23.8941 18.5303V18.5303ZM45.8824 27.5656C45.6569 27.5703 45.4328 27.5299 45.2232 27.4469C45.0136 27.3639 44.8226 27.2398 44.6616 27.0821C44.5005 26.9243 44.3725 26.7359 44.2852 26.5281C44.1979 26.3202 44.1529 26.097 44.1529 25.8715C44.1529 25.4035 44.3389 24.9546 44.6698 24.6236C45.0008 24.2927 45.4496 24.1068 45.9176 24.1068C46.3857 24.1068 46.8345 24.2927 47.1655 24.6236C47.4964 24.9546 47.6824 25.4035 47.6824 25.8715C47.6828 26.1032 47.6357 26.3325 47.5441 26.5452C47.4524 26.758 47.318 26.9497 47.1493 27.1085C46.9806 27.2672 46.7811 27.3897 46.5632 27.4684C46.3453 27.547 46.1136 27.5801 45.8824 27.5656V27.5656ZM27.2471 23.4715C27.5867 23.4773 27.9129 23.6054 28.1657 23.8323C28.4186 24.0592 28.5811 24.3697 28.6235 24.7068C28.6235 25.0718 28.4785 25.422 28.2204 25.6801C27.9622 25.9382 27.6121 26.0832 27.2471 26.0832C27.065 26.0881 26.8838 26.0558 26.7146 25.9884C26.5454 25.9209 26.3917 25.8197 26.2629 25.6909C26.1341 25.5621 26.0329 25.4084 25.9655 25.2392C25.898 25.07 25.8657 24.8889 25.8706 24.7068C25.9056 24.3667 26.066 24.0518 26.3204 23.8235C26.5749 23.5952 26.9052 23.4697 27.2471 23.4715V23.4715ZM49.1294 8.78913L45.0353 11.2244C45.2299 9.81979 45.5129 8.4288 45.8824 7.05972C46.9233 7.7107 48.0083 8.28856 49.1294 8.78913V8.78913ZM17.6471 17.1891C17.1922 14.4549 17.3003 11.6566 17.9647 8.9656L20.4706 10.1303C19.0783 12.2767 18.1191 14.6746 17.6471 17.1891V17.1891ZM52.5529 17.1891C55.0241 17.5257 57.4149 18.3027 59.6118 19.4832L57.5647 22.6244C55.8626 21.427 53.9801 20.5096 51.9882 19.9068C49.9119 19.2862 47.7655 18.9305 45.6 18.848C41.1148 18.6314 36.6569 19.6573 32.7176 21.8127C36.4576 19.0503 40.895 17.3878 45.5294 17.0127C47.893 16.7662 50.2789 16.8374 52.6235 17.2244L52.5529 17.1891ZM26.6824 6.03619C26.4483 6.03619 26.2239 5.94323 26.0584 5.77775C25.893 5.61228 25.8 5.38785 25.8 5.15384C25.8 4.91982 25.893 4.69539 26.0584 4.52992C26.2239 4.36445 26.4483 4.27148 26.6824 4.27148C26.9164 4.27148 27.1408 4.36445 27.3063 4.52992C27.4717 4.69539 27.5647 4.91982 27.5647 5.15384C27.5647 5.38785 27.4717 5.61228 27.3063 5.77775C27.1408 5.94323 26.9164 6.03619 26.6824 6.03619ZM41.8941 30.7421C44.6124 31.4486 47.0656 32.9327 48.9529 35.0127L46.8 36.7421C45.5352 34.5957 43.6705 32.8659 41.4353 31.7656C39.0683 30.7396 36.4394 30.4804 33.9176 31.0244C36.4665 30.0512 39.2566 29.9031 41.8941 30.6009V30.7421Z" fill="#526B55"/>
</svg>
