<svg width="21" height="31" viewBox="0 0 21 31" fill="none" xmlns="http://www.w3.org/2000/svg">
<path d="M0.572266 4.53828V29.5006V30.297L1.34216 30.2146C3.22096 29.9288 5.00859 29.2147 6.56643 28.1275C7.95211 27.2018 9.26643 26.1737 10.4984 25.0519C11.7294 26.1831 13.0437 27.2204 14.4303 28.155C15.9822 29.2437 17.7658 29.9581 19.6408 30.242L20.4107 30.3519V2.97299C20.4115 2.29469 20.1504 1.64221 19.6819 1.15122C19.2133 0.660224 18.5732 0.368499 17.8948 0.336705H3.54185C3.38176 0.322661 3.22075 0.322661 3.06067 0.336705C2.42464 0.453618 1.84224 0.769284 1.39747 1.23817C0.952697 1.70705 0.66855 2.30492 0.586014 2.94553C0.586014 3.28879 0.586014 3.52221 0.586014 3.76936L0.572266 4.53828ZM1.94707 4.53828V3.81056C1.94707 3.5634 1.94707 3.30252 1.94707 3.16522C1.98819 2.82881 2.13568 2.51427 2.3681 2.26733C2.60052 2.02039 2.90574 1.85393 3.23939 1.79215H3.50061H17.7986C18.1098 1.8063 18.4036 1.93982 18.6187 2.1649C18.8339 2.38999 18.9538 2.68928 18.9534 3.00045V28.6767C17.5561 28.3913 16.2203 27.8614 15.0077 27.1115C13.5156 26.1852 12.0955 25.1479 10.7596 24.0083L10.4434 23.7474L10.1272 24.0083C8.7858 25.1513 7.36125 26.1931 5.86527 27.1252C4.65807 27.873 3.32633 28.3985 1.93332 28.6767V4.53828H1.94707Z" fill="#2D2D2D"/>
</svg>
