<svg width="55" height="44" viewBox="0 0 55 44" fill="none" xmlns="http://www.w3.org/2000/svg">
<path fill-rule="evenodd" clip-rule="evenodd" d="M1.08156 25.1489C1.88156 27.3889 3.32156 29.3089 5.08156 30.7489C3.48156 29.1489 2.20156 27.2289 1.72156 25.1489C1.08156 22.9089 1.24156 20.6689 2.04156 18.5889C3.48156 14.4289 6.84156 11.2289 11.0016 9.46889C14.8416 7.38889 19.3216 6.42889 23.6416 6.26889C27.9616 6.10889 32.4416 6.90889 36.2816 8.82889C40.1216 10.5889 43.3216 13.9489 44.1216 17.9489C44.4416 19.8689 44.2816 21.9489 43.4816 23.8689C42.6816 25.7889 41.4016 27.5489 39.8016 28.9889C36.6016 31.8689 32.6016 33.7889 28.2816 34.7489C23.9616 35.7089 19.4816 35.7089 15.1616 34.9089C15.0016 34.9089 14.6816 34.9089 14.5216 35.0689C13.0816 36.3489 11.6016 37.5889 10.1216 38.8289C9.06143 39.7171 8.00129 40.6053 6.95585 41.5083C7.33931 39.3085 7.70276 37.1087 7.96156 34.9089L7.80156 34.7489C7.80156 34.7489 7.64156 34.7489 7.64156 34.9089C6.84156 37.4689 6.20156 40.0289 5.56156 42.7489C5.56156 42.9089 5.56156 43.0689 5.72156 43.2289C5.88156 43.5489 6.20156 43.5489 6.52156 43.3889C8.04156 42.1889 9.60156 41.0289 11.1616 39.8689C12.6043 38.7961 14.047 37.7233 15.4581 36.6189C19.8067 37.628 24.4388 37.6018 28.9216 36.8289C33.5616 36.0289 38.2016 34.1089 41.7216 30.7489C43.4816 29.1489 45.0816 27.2289 46.0416 24.8289C47.0016 22.4289 47.1616 19.7089 46.6816 17.3089C45.5616 12.3489 41.7216 8.34889 37.4016 6.42889C32.9216 4.34889 28.1216 3.54889 23.4816 3.86889C18.8416 4.18889 14.0416 5.30889 10.0416 7.70889C5.88156 9.94889 2.36156 13.6289 1.08156 18.2689C0.441562 20.5089 0.441562 23.0689 1.08156 25.1489ZM23.1613 18.4289C21.5709 18.4289 20.2812 19.7185 20.2812 21.3089C20.2812 22.8993 21.5709 24.1889 23.1613 24.1889C24.7516 24.1889 26.0413 22.8993 26.0413 21.3089C26.0413 19.7185 24.7516 18.4289 23.1613 18.4289ZM13.5612 18.5883C11.9708 18.5883 10.6812 19.8779 10.6812 21.4683C10.6812 23.0587 11.9708 24.3483 13.5612 24.3483C15.1516 24.3483 16.4412 23.0587 16.4412 21.4683C16.4412 19.8779 15.1516 18.5883 13.5612 18.5883ZM30.0414 21.3089C30.0414 19.7185 31.331 18.4289 32.9214 18.4289C34.5118 18.4289 35.8014 19.7185 35.8014 21.3089C35.8014 22.8993 34.5118 24.1889 32.9214 24.1889C31.331 24.1889 30.0414 22.8993 30.0414 21.3089Z" fill="#2D2D2D"/>
<circle cx="45.5" cy="9.5" r="9.5" fill="#FF8045"/>
</svg>
