<svg width="33" height="33" viewBox="0 0 33 33" fill="none" xmlns="http://www.w3.org/2000/svg">
<g clip-path="url(#clip0_13_2130)">
<path d="M8.13927 24.4536C8.11617 24.4241 8.10315 24.388 8.10214 24.3505C8.10113 24.313 8.11217 24.2762 8.13365 24.2455C9.28684 22.7098 10.53 21.2641 11.807 19.8521C12.9039 18.6427 14.0346 17.467 15.1934 16.3081C14.0346 15.1493 12.8814 13.9961 11.807 12.7642C10.53 11.3522 9.28684 9.90651 8.13365 8.3708C8.11059 8.33427 8.10186 8.29051 8.10913 8.24793C8.1164 8.20535 8.13916 8.16697 8.17302 8.14016C8.20153 8.11664 8.23733 8.10378 8.27428 8.10378C8.31123 8.10378 8.34703 8.11664 8.37554 8.14016C9.91688 9.28773 11.3626 10.5309 12.7745 11.8079C13.984 12.9048 15.1653 14.0411 16.3185 15.1943C17.4717 14.0411 18.6699 12.9217 19.885 11.8304C21.2632 10.5759 22.7483 9.31585 24.2446 8.13453C24.2821 8.10812 24.3284 8.09746 24.3736 8.10482C24.4188 8.11218 24.4594 8.13699 24.4865 8.17391C24.5107 8.20349 24.5235 8.2408 24.5225 8.27903C24.5214 8.31725 24.5067 8.35382 24.4809 8.38205C23.3221 9.90089 22.0732 11.341 20.7963 12.7529C19.705 13.968 18.5686 15.1493 17.4211 16.3194C18.5799 17.4782 19.705 18.6708 20.7963 19.8859C22.0732 21.2978 23.3221 22.7379 24.4809 24.2567C24.4956 24.2742 24.5066 24.2945 24.5132 24.3163C24.5197 24.3381 24.5218 24.3611 24.5191 24.3838C24.5165 24.4064 24.5092 24.4283 24.4978 24.4481C24.4864 24.4678 24.4711 24.485 24.4527 24.4986C24.4221 24.5223 24.3845 24.5351 24.3459 24.5351C24.3072 24.5351 24.2696 24.5223 24.239 24.4986C22.7258 23.3342 21.2857 22.0854 19.8737 20.8084C18.6587 19.7171 17.4773 18.5808 16.3073 17.4445C15.1541 18.5977 13.9952 19.7565 12.7633 20.8309C11.3513 22.1079 9.90563 23.3511 8.36428 24.4986C8.3467 24.5109 8.32681 24.5194 8.30583 24.5238C8.28485 24.5282 8.26321 24.5283 8.24219 24.5241C8.22118 24.5199 8.20123 24.5115 8.18354 24.4994C8.16586 24.4872 8.1508 24.4717 8.13927 24.4536V24.4536Z" fill="#2D2D2D"/>
</g>
<defs>
<clipPath id="clip0_13_2130">
<rect width="23.0707" height="23.0707" fill="white" transform="translate(16.3125) rotate(45)"/>
</clipPath>
</defs>
</svg>
