<svg width="69" height="48" viewBox="0 0 69 48" fill="none" xmlns="http://www.w3.org/2000/svg">
<g clip-path="url(#clip0_585_2430)">
<path d="M27.878 3.38815C21.4442 3.9607 20.5175 9.73935 21.0428 15.1166C21.4914 20.1988 23.6576 23.9351 18.664 27.7541L18.729 25.7649C21.4737 27.9666 24.7614 29.4954 28.2026 30.2273C28.8755 30.369 29.3064 31.036 29.1589 31.7089C28.5096 34.8667 28.1023 37.6115 24.3482 38.1486C22.9611 38.4496 21.3556 38.8038 19.9921 39.0576C16.2263 39.7305 11.8465 41.2239 11.9292 45.698C11.9055 45.9873 12.1535 46.1761 12.4309 46.182C24.9326 46.5421 38.6562 45.8515 51.1933 45.5091L54.1328 45.4501C54.1446 45.4383 53.9557 45.4737 53.9203 45.6626C53.9203 45.6685 53.9085 45.7394 53.9144 45.6921C53.9498 43.7089 52.97 42.0148 51.1284 41.0527C48.1062 39.4649 44.0866 39.1579 40.7398 38.1014C39.1048 37.582 37.9538 35.758 37.6881 34.2293C37.4343 33.2317 37.2277 32.2224 37.0684 31.2012C36.9444 30.4221 37.4225 29.6843 38.1544 29.46C41.5661 28.4034 44.8008 26.6385 47.7167 24.3955L47.5809 26.6267C47.0143 26.0778 46.3591 25.4108 45.8573 24.7556C43.6439 22.0109 42.6109 18.487 42.4929 15.0281C42.4751 12.6198 42.4338 10.4359 41.7609 8.15155C39.6714 0.767391 34.0875 -0.731872 27.878 3.38225V3.38815ZM27.6714 3.18156C34.0521 -2.40231 40.9818 -0.430839 43.756 7.51407C44.6414 9.82199 44.8598 12.4723 45.0015 14.8687C45.2848 18.1565 46.4535 21.397 48.85 23.699C49.1097 23.9646 49.3694 24.2066 49.694 24.5136C50.3492 25.1274 50.2784 26.2194 49.5583 26.7448C46.4417 29.2239 42.9474 31.3252 39.0812 32.4703L40.1849 30.7231C40.3266 31.6439 40.5096 32.5529 40.7339 33.456C40.9346 34.2234 41.0231 34.6129 41.5425 35.0261C41.7786 35.2091 42.1387 35.3035 42.4397 35.3803C45.8751 36.3955 49.2395 36.7497 52.5391 38.6031C55.0418 39.9489 56.7359 42.8648 56.5234 45.7335C56.5234 46.9317 55.4786 47.9705 54.2922 47.9941H54.1328L51.1933 47.9351C38.7093 47.581 25.0625 46.9199 12.6139 47.2563C9.77471 47.4039 10.7722 43.3842 11.6281 41.8259C12.1653 40.8638 12.9562 40.0551 13.8298 39.4354C16.4565 37.6233 19.4255 37.0979 22.3236 36.2362L23.7049 35.8407C24.909 35.5396 25.6527 35.3035 25.9774 34.005L26.5617 31.2662L27.5947 32.7831C23.7403 32.0158 20.1515 30.1919 17.1412 27.6951C16.604 27.2583 16.5273 26.4614 16.97 25.9243C20.6768 23.3094 19.5553 20.9425 19.2307 17.0645C19.0182 14.5972 19.0477 12.0473 19.6557 9.63311C20.2636 6.85888 22.1466 4.10827 25.0152 3.38815C25.8593 3.15795 26.8096 3.03399 27.6714 3.17565V3.18156Z" fill="#2D2D2D"/>
<path d="M67.8742 38.6798C68.0985 38.6326 68.2107 38.4319 68.1576 38.2725C67.7208 35.1618 63.8664 35.634 61.4935 35.0674C59.4512 34.8136 58.9908 32.8067 58.5894 31.1421C58.3829 30.3571 58.9141 29.637 59.6637 29.4422C61.2574 28.846 62.6681 27.8544 63.9785 26.7565L63.8133 29.5189C61.9126 27.9429 60.7793 25.4638 60.6317 23.032C60.5845 22.0757 60.5196 20.8539 60.1831 19.9862C59.4158 17.7786 58.1467 17.0703 55.8979 18.7054L56.7242 17.0644C56.7065 18.1859 55.7975 19.089 54.676 19.1067C52.2146 18.9533 52.557 22.7604 52.6278 24.543C53.0233 26.6267 52.4625 28.7339 50.5206 29.8731L50.5855 27.7777C51.8428 28.9936 53.3715 29.938 55.0597 30.4692C55.9923 30.8411 55.2309 31.9154 55.0715 32.5647C54.9416 32.9779 54.6583 33.5386 54.1979 33.8514C53.7906 34.1643 53.2889 34.2115 52.8167 34.2469L51.5535 34.365L51.5004 34.1348L52.7045 33.8278C53.5545 33.7039 54.1979 33.2435 54.3219 32.364L54.5816 31.1539L54.6878 31.3133C52.8462 30.9415 51.1108 30.0974 49.647 28.9169C49.5644 28.8519 49.5703 28.728 49.6529 28.669C50.6327 28.002 51.1699 26.8864 50.981 25.7058C50.615 23.3802 50.19 20.6886 51.4532 18.546C52.1025 17.4363 53.407 16.8342 54.6701 16.8519L54.4576 17.0644C54.4576 16.9936 54.4871 16.9287 54.5403 16.8933C55.225 16.4328 55.9156 15.9665 56.7124 15.7304C58.3179 15.1048 60.2363 15.695 61.2515 17.0762C62.8806 19.0477 62.7213 21.6921 63.0164 24.059C63.282 25.6232 64.0612 27.0162 65.2476 28.0846C65.3302 28.1613 65.3243 28.2971 65.2358 28.362C63.7129 29.5425 62.013 30.5224 60.1536 31.0772L60.2717 30.8942C60.5491 31.8977 60.4665 33.2553 61.4994 33.6212C63.5476 34.3 66.009 34.3296 67.6677 35.9292C68.2933 36.4722 69.1787 38.8332 67.8801 38.9218V38.6857L67.8742 38.6798Z" fill="#2D2D2D"/>
<path d="M18.2922 36.909C18.5165 36.8618 18.6287 36.6611 18.5755 36.5017C18.1387 33.3911 14.2843 33.8633 11.9115 33.2966C9.86919 33.0428 9.40879 31.0359 9.00741 29.3714C8.80082 28.5863 9.33206 27.8662 10.0817 27.6714C11.6754 27.0753 13.0861 26.0836 14.3965 24.9858L14.2312 27.7482C12.3306 26.1722 11.1973 23.6931 11.0497 21.2612C11.0025 20.305 10.9376 19.0831 10.6011 18.2155C9.83378 16.0079 8.56472 15.2996 6.31582 16.9346L7.14219 15.2937C7.12448 16.4152 6.21548 17.3183 5.09399 17.336C2.6326 17.1825 2.97495 20.9897 3.04578 22.7723C3.44126 24.8559 2.88051 26.9631 0.93855 28.1023L1.00348 26.0069C2.26073 27.2228 3.78951 28.1673 5.47765 28.6985C6.41027 29.0704 5.64883 30.1446 5.48946 30.7939C5.3596 31.2071 5.07628 31.7679 4.61587 32.0807C4.20859 32.3935 3.70687 32.4407 3.23466 32.4762L1.97151 32.5942L1.91838 32.364L3.12251 32.0571C3.97249 31.9331 4.61587 31.4727 4.73983 30.5932L4.99954 29.3832L5.10579 29.5426C3.26418 29.1707 1.52881 28.3266 0.0649644 27.1461C-0.0176721 27.0812 -0.0117695 26.9572 0.070867 26.8982C1.0507 26.2312 1.58784 25.1156 1.39895 23.9351C1.03299 21.6095 0.608004 18.9179 1.87116 16.7752C2.52045 15.6655 3.82493 15.0635 5.08808 15.0812L4.87559 15.2937C4.87559 15.2228 4.9051 15.1579 4.95823 15.1225C5.64293 14.6621 6.33353 14.1958 7.13038 13.9597C8.73589 13.334 10.6542 13.9243 11.6695 15.3055C13.2986 17.277 13.1392 19.9213 13.4344 22.2883C13.7 23.8525 14.4791 25.2455 15.6656 26.3138C15.7482 26.3906 15.7423 26.5263 15.6537 26.5913C14.1309 27.7718 12.4309 28.7516 10.5716 29.3065L10.6897 29.1235C10.9671 30.1269 10.8844 31.4845 11.9174 31.8505C13.9656 32.5293 16.427 32.5588 18.0856 34.1584C18.7113 34.7014 19.5967 37.0625 18.2981 37.151V36.9149L18.2922 36.909Z" fill="#2D2D2D"/>
</g>
<defs>
<clipPath id="clip0_585_2430">
<rect width="68.5411" height="48" fill="white"/>
</clipPath>
</defs>
</svg>
