<svg width="32" height="37" viewBox="0 0 32 37" fill="none" xmlns="http://www.w3.org/2000/svg">
<g clip-path="url(#clip0_585_2439)">
<path d="M31.5875 16.0432C31.3431 16.0058 31.1102 15.9425 30.8866 15.848C30.7926 15.8033 30.6182 15.8324 30.5921 15.6963C30.5534 15.552 30.6192 15.3453 30.684 15.1978L30.7091 15.1459L30.7843 15.0732C30.9462 14.9994 31.177 14.9257 31.34 14.9714C31.4758 15.0005 31.4423 15.1739 31.4841 15.2684C31.5729 15.4938 31.6293 15.7254 31.6607 15.9705L31.5855 16.0432H31.5875Z" fill="#2D2D2D"/>
<path d="M0.337402 15.9912C0.368739 15.7472 0.425145 15.5145 0.513932 15.2891C0.555715 15.1946 0.522289 15.0212 0.658081 14.9921C0.80223 14.9495 1.01219 15.0098 1.16156 15.07L1.21483 15.0939L1.29004 15.1666C1.36942 15.3255 1.44881 15.5529 1.40807 15.716C1.383 15.8521 1.20752 15.823 1.11351 15.8676C0.889973 15.9622 0.658081 16.0245 0.41261 16.0629L0.337402 15.9902V15.9912Z" fill="#2D2D2D"/>
<path d="M1.17634 15.1219C5.41515 10.5708 10.2985 5.40378 14.579 0.889005L15.0272 0.415405L15.1389 0.297005C15.2653 0.150563 15.4659 0.0809771 15.6529 0.118367C15.8419 0.14537 15.9767 0.313623 16.1114 0.4341C17.0609 1.3221 18.9808 3.0981 19.9355 3.97883C22.4477 6.30009 24.9745 8.84569 27.3404 11.3165C28.5416 12.5732 29.7283 13.8455 30.8762 15.1572L30.8031 15.232C28.7714 13.5838 26.8223 11.8504 24.8846 10.0993C21.6726 7.22444 18.4575 3.9591 15.4095 0.911854L15.352 0.854732C15.352 0.854732 15.3437 0.846423 15.3489 0.851616C15.4586 0.957553 15.6424 0.955475 15.75 0.844346L15.7239 0.87031L15.6079 0.985595C12.3917 4.18343 8.21874 8.34509 4.96808 11.5388C4.04991 12.4486 2.17598 14.289 1.2505 15.1946L1.17529 15.1219H1.17634Z" fill="#2D2D2D" stroke="#2D2D2D"/>
<path d="M28.8413 17.9986C28.7128 17.6695 28.6125 17.3422 28.5279 17.006C27.874 17.006 29.42 17.0051 29.2602 17.006C29.2664 17.0265 29.2727 17.0604 29.2779 17.0809C29.3051 17.2325 29.3552 17.3922 29.4106 17.5393C29.5088 17.8961 29.2727 18.2153 28.9458 18.4552H28.8413C28.5144 18.2153 28.2783 17.8961 28.3765 17.5393C28.4318 17.3931 28.482 17.2325 28.5091 17.0809C28.5154 17.0595 28.5217 17.0265 28.5269 17.0051C28.3681 17.0051 29.913 17.0051 29.2591 17.0051C29.1745 17.3413 29.0742 17.6686 28.9458 17.9977H28.8413V17.9986Z" fill="#2D2D2D" stroke="#2D2D2D"/>
<path d="M20.819 23.6527C20.9193 27.4786 21.0352 32.3489 21.1042 36.1819L21.1073 36.3344V36.4085C21.1115 36.3496 21.0551 36.2934 20.9757 36.272C20.8879 36.2604 20.9611 36.2676 20.983 36.2649C21.0885 36.2649 21.4081 36.2577 21.5199 36.2577C22.5206 36.2426 27.6619 36.1748 28.7681 36.1579H28.813C28.7764 36.1579 28.7326 36.1641 28.696 36.1775C28.5769 36.223 28.5195 36.3006 28.5142 36.3933V36.3835L28.508 36.0776C28.414 32.2775 28.3126 28.267 28.4505 24.4651C28.5278 22.018 28.626 19.5744 28.8433 17.1299H28.9477C29.1755 19.5735 29.2851 22.0162 29.3729 24.4634C29.5264 28.2661 29.4439 32.2757 29.3666 36.0767C29.3656 36.0892 29.3624 36.4129 29.3603 36.4209C29.3457 36.6011 29.2339 36.7616 29.0188 36.8401C28.9122 36.882 28.7921 36.8749 28.6803 36.8731C27.6201 36.8633 22.4652 36.8125 21.522 36.8044C21.3925 36.8 21.0707 36.8027 20.9402 36.7991C20.6446 36.8035 20.4607 36.5779 20.4941 36.3353C20.5056 36.0758 20.5234 33.7499 20.5338 33.4324C20.5631 31.8218 20.6372 27.657 20.6654 26.0981L20.7177 23.6536H20.8221L20.819 23.6527Z" fill="#2D2D2D" stroke="#2D2D2D"/>
<path d="M20.7265 35.2725C20.6628 32.7665 20.5709 28.8076 20.5176 26.2713C20.4988 25.6319 20.5061 24.6642 20.4654 24.0355C20.3536 22.6326 19.6005 21.2075 18.2509 20.3852C16.0448 19.0484 13.4032 20.0455 12.3816 22.0458C12.0014 22.7486 11.8165 23.5298 11.8029 24.3066C11.8008 24.8256 11.7904 25.7398 11.781 26.2704C11.7538 27.593 11.6922 29.4667 11.6264 30.7714C11.5532 32.2715 11.4613 33.7715 11.3109 35.2725H11.2065C10.984 33.0233 10.8805 30.775 10.798 28.5214C10.7761 27.7722 10.7239 25.87 10.7197 25.1458C10.703 24.3601 10.7019 23.5637 10.9484 22.7985C11.6608 20.3576 14.432 18.3769 17.4404 19.283C19.7018 19.975 20.9856 22.0467 21.0639 24.0069C21.0838 24.6571 21.042 25.6149 21.0389 26.2713C21.0054 27.7517 20.9208 31.5884 20.8884 33.0224L20.83 35.2725H20.7255H20.7265Z" fill="#2D2D2D" stroke="#2D2D2D"/>
<path d="M3.01689 18.0199C2.88736 17.6908 2.78186 17.3653 2.70143 17.0273C2.70143 17.0228 2.70143 17.0175 2.70143 17.013C2.70456 17.0077 2.69203 17.0326 2.71605 16.9381C2.24287 16.6688 3.67078 16.9265 3.43158 17.0041V17.013C3.43993 17.0612 3.47649 17.2012 3.48694 17.2538C3.50887 17.3555 3.55379 17.4571 3.58826 17.5588C3.66242 17.7746 3.57468 17.9771 3.44307 18.1706C3.3689 18.2723 3.27698 18.3748 3.12761 18.4774H3.02315C2.69516 18.2384 2.457 17.92 2.55415 17.5633C2.61578 17.4045 2.66174 17.2324 2.69307 17.0683C2.69307 17.0647 2.70039 17.0353 2.70143 17.0389C2.70143 17.0407 2.70143 17.038 2.70143 17.0424V17.0496C2.46327 17.1272 3.89118 17.384 3.418 17.1156C3.44202 17.021 3.42949 17.046 3.43262 17.0416V17.0371C3.34488 17.3555 3.24878 17.6962 3.12239 18.0181H3.01793L3.01689 18.0199Z" fill="#2D2D2D" stroke="#2D2D2D"/>
<path d="M11.3118 24.1271C11.3943 27.8469 11.4841 32.6244 11.5353 36.3523C11.5593 36.6136 11.3525 36.8116 11.0287 36.7902C9.67077 36.808 7.28292 36.8392 5.90201 36.8579C5.43823 36.8633 4.22968 36.8802 3.78052 36.8856L3.42746 36.89C3.28018 36.8909 3.0932 36.9079 2.96159 36.8356C2.7276 36.7233 2.66389 36.5235 2.67538 36.3193C2.67538 36.2274 2.66702 35.9625 2.66598 35.8662C2.57614 32.1125 2.47796 28.151 2.61793 24.3956C2.69731 21.9778 2.79759 19.5646 3.01695 17.1504H3.1214C3.41597 20.3155 3.52669 23.6277 3.60503 26.8097C3.6792 29.8642 3.56534 33.1087 3.51938 36.1677C3.51938 36.2176 3.5152 36.3612 3.5152 36.4129C3.51729 36.387 3.5058 36.3612 3.49535 36.3335C3.47551 36.2934 3.43686 36.2461 3.36792 36.214C3.32614 36.1944 3.27495 36.1828 3.22586 36.1819C3.21228 36.1819 3.22795 36.1819 3.22795 36.1819H3.24988L3.42641 36.1837C4.86895 36.1989 7.26516 36.2238 8.72963 36.239C9.3104 36.2444 10.5002 36.2577 11.0715 36.264H11.0935C11.0997 36.264 11.1154 36.264 11.0945 36.264C11.0057 36.2684 10.9263 36.3335 10.9274 36.4004C10.9274 36.4049 10.9274 36.3995 10.9274 36.3969V36.387V36.3496C10.9733 33.5867 11.0788 29.3033 11.1415 26.5395L11.2052 24.1245H11.3097L11.3118 24.1271Z" fill="#2D2D2D" stroke="#2D2D2D"/>
</g>
<defs>
<clipPath id="clip0_585_2439">
<rect width="32" height="37" fill="white"/>
</clipPath>
</defs>
</svg>
