<svg width="48" height="48" viewBox="0 0 48 48" fill="none" xmlns="http://www.w3.org/2000/svg">
<circle cx="24" cy="24" r="24" fill="#EFEFEF"/>
<path d="M17.7766 25.6491C17.5505 25.452 17.3657 25.2119 17.2332 24.9428C17.1006 24.6736 17.0228 24.3809 17.0043 24.0814C16.9858 23.782 17.027 23.4819 17.1255 23.1985C17.224 22.9151 17.3777 22.6541 17.5779 22.4306L17.7766 22.232L29.2069 12.1659C29.2575 12.1134 29.3182 12.0717 29.3854 12.0432C29.4525 12.0147 29.5247 12 29.5976 12C29.6705 12 29.7427 12.0147 29.8098 12.0432C29.877 12.0717 29.9377 12.1134 29.9883 12.1659C30.0614 12.2608 30.101 12.3773 30.101 12.497C30.101 12.6168 30.0614 12.7332 29.9883 12.8281L22.8494 23.9803L30.0413 35.1192C30.0823 35.1803 30.1104 35.2492 30.124 35.3216C30.1375 35.394 30.1362 35.4684 30.1201 35.5402C30.104 35.6121 30.0734 35.6799 30.0303 35.7396C29.9871 35.7993 29.9323 35.8495 29.8691 35.8874C29.7742 35.9604 29.6578 36 29.538 36C29.4182 36 29.3018 35.9604 29.2069 35.8874L17.7766 25.6491Z" fill="#2D2D2D"/>
</svg>
