<svg width="48" height="48" viewBox="0 0 48 48" fill="none" xmlns="http://www.w3.org/2000/svg">
<g clip-path="url(#clip0_585_2451)">
<path fill-rule="evenodd" clip-rule="evenodd" d="M22.0185 20.1053C22.1154 19.8066 22.225 19.5033 22.3232 19.2314L22.3233 19.2313C22.3945 19.0341 22.4598 18.8534 22.5099 18.7031C22.6186 18.2682 22.5845 17.9048 22.5483 17.5189C22.5294 17.3173 22.5099 17.1096 22.5099 16.8824C22.1789 15.7238 21.5168 14.8962 20.5237 14.3997L19.5306 13.9031L19.5306 13.9031C19.1995 13.7376 18.8685 13.5721 18.5375 13.241C17.8754 12.7445 17.0478 12.0824 16.5513 11.2548C15.5582 9.76518 14.8961 7.94449 15.0616 5.95829C15.0616 5.1307 15.3927 3.97208 15.8892 3.14449C16.3858 2.15139 17.0478 1.48932 18.0409 0.992769C19.8616 -0.000334337 22.1789 -0.165852 23.834 0.827252C25.8203 1.82036 26.8134 4.46863 25.6547 6.28932C25.1582 7.11691 24.3306 7.77898 23.3375 8.11001C22.8409 8.27553 22.5099 8.27553 22.0134 8.27553C21.74 8.27553 21.5168 8.22537 21.3162 8.18027L21.3162 8.18027C21.1523 8.14345 21.0035 8.11001 20.8547 8.11001C20.5237 8.11001 20.3582 7.77898 20.3582 7.61346C20.3582 7.44794 20.5237 7.28242 20.6892 7.11691C20.8547 7.11691 21.0616 7.07553 21.2685 7.03415C21.4754 6.99277 21.6823 6.95139 21.8478 6.95139C22.0902 6.95139 22.2438 6.86269 22.4386 6.75022C22.5099 6.70905 22.5867 6.66471 22.6754 6.62036C23.172 6.28932 23.503 5.79277 23.503 5.46173C23.6685 4.96518 23.503 4.63415 23.3375 4.30311C23.172 3.97208 22.8409 3.64105 22.3444 3.64105C21.5168 3.14449 20.5237 3.31001 19.8616 3.80656C19.1996 4.46863 18.703 5.1307 18.703 6.1238C18.703 7.28242 18.8685 8.27553 19.5306 9.26863C19.6961 9.5169 19.8616 9.7238 20.0271 9.93069C20.1927 10.1376 20.3582 10.3445 20.5237 10.5928C20.6892 10.7583 21.0203 10.9238 21.3513 11.0893C21.5559 11.1916 21.6972 11.2939 21.8926 11.4353C22.0134 11.5227 22.1547 11.6249 22.3444 11.7514C23.9996 12.91 24.8271 14.7307 24.8271 16.5514C24.8271 17.5445 24.6616 18.3721 24.1651 19.1997C23.9946 19.4839 23.824 19.729 23.6535 19.9552C25.6655 19.7445 27.5638 19.3064 29.4621 18.8683L29.4621 18.8683C30.6208 18.5373 31.6139 18.2063 32.607 17.7097C33.6001 17.2132 34.5932 16.7166 35.0897 16.0545C35.119 15.9959 35.1484 15.9425 35.1758 15.8924C35.3035 15.6597 35.3914 15.4994 35.2552 15.227C35.2552 14.9787 34.9759 14.7304 34.6966 14.4821L34.6966 14.4821C34.6035 14.3993 34.5104 14.3166 34.4277 14.2338C33.7656 13.7925 33.1035 13.4982 32.4415 13.204C32.1104 13.0568 31.7794 12.9097 31.4484 12.7442C29.2966 11.9166 26.9794 11.4201 24.6622 10.9235L24.6621 10.9235C26.9794 11.089 29.2966 11.2545 31.6139 11.7511C32.7725 12.0821 33.9311 12.4132 35.0897 13.0752C35.1703 13.1289 35.2553 13.1827 35.3424 13.2378C35.7924 13.5224 36.3021 13.8447 36.5794 14.3994C36.7449 14.7304 36.9104 15.227 36.9104 15.7235C36.9104 16.2201 36.7449 16.5511 36.4139 16.8821C35.6952 17.8883 34.7269 18.52 33.8341 19.1024C33.6988 19.1906 33.5653 19.2778 33.4346 19.3649C32.8553 19.6131 32.3174 19.8614 31.7795 20.1097L31.7794 20.1097L31.7792 20.1098C31.2413 20.3581 30.7034 20.6063 30.1242 20.8545C27.807 21.6821 25.4897 22.1787 23.007 22.3442C18.207 22.8407 13.2415 22.3442 8.60697 20.689C7.44835 20.1925 6.28973 19.6959 5.29663 18.8683C4.80008 18.5373 4.30353 18.0407 3.80697 17.2132C3.64146 17.0476 3.47594 16.5511 3.47594 16.0545C3.47594 15.558 3.64146 15.0614 3.97249 14.7304C4.96559 13.5718 6.12422 13.0752 7.28284 12.7442C8.44145 12.4132 9.60006 12.2476 10.7587 12.0821L10.7587 12.0821C10.2622 12.3304 9.72426 12.62 9.18635 12.9097L9.18631 12.9097L9.18629 12.9097C8.64835 13.1994 8.11042 13.489 7.61387 13.7373C6.78628 14.2338 5.62766 15.0614 5.29663 15.7235C5.13111 16.0545 5.29663 16.2201 5.46215 16.3856C5.62766 16.7166 6.12422 17.0476 6.45525 17.2132C7.28284 17.7097 8.44146 18.2063 9.43456 18.5373C12.7914 19.5702 16.3498 20.2002 19.8738 20.1917C19.8101 20.1415 19.7532 20.0846 19.6962 20.0276C19.1996 19.0345 18.5376 18.2069 17.71 17.7104C17.4571 17.4575 17.1076 17.3012 16.8091 17.1677L16.8091 17.1677L16.809 17.1676L16.8088 17.1675C16.7167 17.1263 16.6294 17.0873 16.5514 17.0483C16.3858 17.0483 16.0548 16.8828 15.7238 16.7173C15.3927 16.3862 15.0617 16.2207 14.7307 16.0552C13.5721 15.2276 12.7445 13.9035 12.4134 12.5793C12.0824 11.2552 12.4134 9.60001 12.7445 8.60691C12.91 8.27588 13.241 8.27588 13.4065 8.27588C13.5721 8.27588 13.7376 8.60691 13.7376 8.77243V8.77244C13.7376 9.4345 13.7376 9.93105 13.9031 10.4276C13.9583 10.5931 13.995 10.7586 14.0318 10.9242C14.1054 11.2552 14.179 11.5862 14.3996 11.9173C14.7307 12.7448 15.3927 13.5724 16.2203 14.069C16.3226 14.1713 16.4249 14.2103 16.5663 14.2643C16.6537 14.2977 16.756 14.3368 16.8824 14.4L17.71 14.731C18.3721 15.0621 19.0341 15.3931 19.5307 16.0552C20.5238 17.0483 21.0203 18.5379 20.8548 19.8621C20.8548 19.9929 20.8031 20.0978 20.7304 20.1769C21.1607 20.163 21.5902 20.1393 22.0185 20.1053ZM4.80008 24.3304C4.46904 22.8407 3.97249 21.1856 3.47594 19.6959C3.22601 20.9456 3.25912 22.1952 3.29035 23.3737C3.30049 23.7561 3.31042 24.131 3.31042 24.4959C3.64146 26.1511 3.97249 27.8063 4.46904 29.2959C5.46215 32.4407 6.9518 35.4201 9.10353 37.9028H9.26904C9.3518 37.9028 9.39318 37.9028 9.41387 37.8821C9.43456 37.8614 9.43456 37.8201 9.43456 37.7373L9.43453 37.7372C8.27592 34.7579 7.11731 31.7786 6.12422 28.7994C5.87594 28.0545 5.66904 27.3097 5.46215 26.5649C5.25525 25.8201 5.04835 25.0752 4.80008 24.3304ZM39.7242 30.7856C37.7667 32.8829 35.3368 34.744 32.8335 36.5684C33.0532 36.2511 33.2544 35.9231 33.4342 35.5859C34.6753 33.5175 35.227 31.3343 35.7594 29.2276C35.8661 28.8055 35.972 28.3865 36.0825 27.9721C36.0825 27.4755 35.917 26.979 35.586 27.1445C35.2549 26.979 34.7584 27.1445 34.5929 27.6411C34.4144 28.1764 34.2437 28.7117 34.074 29.2437C33.4567 31.179 32.8534 33.0705 31.9446 34.7583C30.786 36.91 28.9653 38.5652 26.648 39.5583C24.3308 40.5514 21.848 41.048 19.1998 41.048C16.5515 41.048 13.9032 40.7169 11.4204 40.0549C13.9032 40.8824 16.5515 41.71 19.1998 41.8755C21.848 42.0411 24.4963 41.71 27.1446 40.8824C29.0526 40.2464 30.9607 38.9261 32.3428 37.222C35.4944 35.9564 38.5197 34.3786 41.5449 32.1097C43.0346 30.9511 44.3587 29.4614 45.3518 27.8063C46.1794 26.1511 47.007 24.1649 46.5104 21.6821C46.1794 20.5235 45.5173 19.5304 44.8552 18.7028C44.1932 17.8752 43.3656 17.2132 42.207 16.7166C41.0484 16.3856 39.7242 16.2201 38.5656 16.5511C37.407 16.8821 36.4139 17.5442 35.5863 18.3718C34.7587 19.1994 34.0966 20.358 34.0966 21.6821C34.0966 22.8407 34.5932 23.9994 35.4208 24.9925C36.2483 25.8201 37.738 26.3166 38.8966 26.1511C40.0552 25.9856 41.2139 25.158 41.7104 24.1649C42.0415 23.8338 41.8759 23.3373 41.5449 23.0063C41.0484 22.6752 40.5518 22.8407 40.2208 23.1718C39.3932 24.3304 37.738 24.1649 37.2415 23.3373C36.9104 22.8407 36.7449 22.1787 36.7449 21.6821C36.9104 21.1856 37.0759 20.689 37.5725 20.1925C38.069 19.6959 38.5656 19.3649 39.2277 19.1994C39.6676 19.0527 40.1076 19.1659 40.6626 19.3088L40.6628 19.3088C40.7341 19.3272 40.8074 19.346 40.8828 19.3649C42.0415 19.8614 43.2001 21.1856 43.5311 22.3442V23.3373C43.5311 23.5028 43.4897 23.7097 43.4484 23.9166C43.407 24.1235 43.3656 24.3304 43.3656 24.4959C43.3656 25.158 43.0346 25.9856 42.7035 26.6476C42.0415 28.1373 40.8828 29.4614 39.7242 30.7856ZM8.901 39.356C9.14008 39.2089 9.37916 39.0618 9.59985 38.8962C8.60675 39.0618 7.77916 39.2273 7.11709 39.7238C6.2895 40.2204 5.62743 41.379 5.95847 42.5376C6.2895 43.6962 7.11709 44.3583 7.77916 44.8549C8.44123 45.3514 9.26881 45.848 10.0964 46.179C13.4067 47.6687 17.0481 48.1652 20.524 48.1652C22.3447 47.9997 23.9998 47.8342 25.8205 47.5031C27.4757 47.1721 29.1309 46.6756 30.7861 45.848C31.382 45.6096 31.8922 45.2853 32.4401 44.9371C32.6531 44.8018 32.8717 44.6628 33.1033 44.5238C33.2906 44.3366 33.4911 44.1625 33.6936 43.9868C34.2071 43.5411 34.7334 43.0843 35.0895 42.3721C35.5861 41.2135 34.7585 40.0549 33.9309 39.7238C33.1033 39.2273 32.2757 39.0618 31.4481 38.8962C32.2757 39.2273 32.9378 39.7238 33.5998 40.2204C34.2619 40.7169 34.593 41.379 34.2619 41.8755C34.0964 42.3721 33.2688 42.8687 32.6067 43.1997C32.193 43.3652 31.8205 43.5307 31.4481 43.6962C31.0757 43.8618 30.7033 44.0273 30.2895 44.1928C27.3102 45.3514 23.9998 45.848 20.6895 45.848C17.3792 46.0135 14.0688 45.5169 10.924 44.5238C10.5929 44.3583 10.2205 44.1928 9.84809 44.0273C9.47569 43.8617 9.10329 43.6962 8.77226 43.5307C8.11019 43.1997 7.44812 42.7031 7.11709 42.2066C6.78606 41.71 7.11709 40.8824 7.61364 40.3859C7.94468 39.9445 8.42284 39.6503 8.901 39.356Z" fill="#2D2D2D"/>
</g>
<defs>
<clipPath id="clip0_585_2451">
<rect width="48" height="48" fill="white"/>
</clipPath>
</defs>
</svg>
