<svg width="51" height="46" viewBox="0 0 51 46" fill="none" xmlns="http://www.w3.org/2000/svg">
<path fill-rule="evenodd" clip-rule="evenodd" d="M38.6965 1.44664C40.433 1.61997 41.9959 2.65997 43.0379 3.87331C45.2954 6.47331 44.9481 10.4533 43.7325 13.7466C43.5588 14.2666 43.9061 14.7866 44.2534 14.96C44.6008 15.1333 45.1217 14.7866 45.2954 14.44C46.1637 12.5333 46.511 10.6266 46.511 8.55331C46.511 6.64664 45.8163 4.39331 44.4271 2.83997C43.0379 1.27997 40.954 0.239974 38.8768 0.0666407C36.7929 -0.106693 34.7091 0.586641 33.1529 1.79997C33.0927 1.79997 33.0593 1.81997 33.0326 1.85331C31.9105 1.25997 30.7684 0.866641 29.5061 0.593307C27.9432 0.246641 26.3803 0.246641 24.8174 0.246641C22.5198 0.373307 20.3224 0.966641 18.3521 2.03331C18.3387 1.95997 18.2986 1.87997 18.2252 1.80664C16.6623 0.593307 14.5784 -0.100026 12.5012 0.0733074C10.4174 0.246641 8.33349 1.28664 6.95092 2.84664C5.56168 4.40664 4.86706 6.48664 4.86706 8.55997C4.6934 10.64 5.21437 12.5466 6.08265 14.4466C6.2563 14.7933 6.60361 14.9666 7.12458 14.7933C7.64555 14.62 7.8192 14.2733 7.64555 13.7533C6.42996 10.46 6.08265 6.47997 8.16651 3.87997C9.20844 2.66664 10.7713 1.62664 12.5079 1.45331C14.2445 1.10664 15.981 1.45331 17.7176 2.31997H17.8445C17.3168 2.63331 16.8159 2.97997 16.3283 3.35997C16.3283 3.53331 16.3283 3.53331 16.502 3.70664C16.502 3.87997 16.502 3.87997 16.6756 3.87997C19.2805 2.66664 22.2326 1.97331 25.0044 1.97331C27.9566 1.97331 30.5547 2.66664 33.1595 3.87997C33.5068 4.05331 34.0278 3.87997 34.2015 3.53331C34.3751 3.01331 34.2015 2.49331 33.8542 2.31997C33.8007 2.28664 33.754 2.25331 33.7005 2.22664C35.3569 1.41997 37.0267 1.11331 38.6965 1.44664ZM12.3209 35.0533H36.6193C37.1403 35.0533 37.4876 34.7066 37.4876 34.1866C37.4876 33.6666 37.1403 33.32 36.6193 33.32H12.3209H12.2875C12.3075 32.8 12.3209 32.28 12.3209 31.76V28.8133C12.3209 27.7733 12.3209 26.9066 11.9736 25.6933C11.2789 23.7866 9.5424 22.2266 7.45853 21.5333C6.4166 21.1866 5.20101 21.36 4.15908 21.88C4.24591 21.7933 4.28598 21.7066 4.33273 21.62C4.37281 21.5333 4.41956 21.4466 4.50639 21.36C5.37467 20.1466 6.24294 18.9333 7.28488 17.8933C8.32681 17.0266 9.5424 16.5066 10.5843 17.2C11.6263 17.8933 12.3209 19.1066 12.8418 20.4933C12.8418 20.6666 13.1892 20.84 13.3628 20.84C13.5365 20.84 13.7101 20.6666 13.7101 20.32C13.3628 18.9333 12.8418 17.2 11.279 16.16C10.5843 15.64 9.5424 15.2933 8.50046 15.64C7.63219 15.8133 6.76391 16.3333 6.24294 16.8533C5.02736 17.8933 3.98542 19.28 3.2908 20.6666C2.59618 21.88 2.07521 23.0933 1.55425 24.48C1.03328 25.3466 0.685971 26.3866 0.859626 27.4266C0.859626 28.64 1.38059 29.68 2.24887 30.5466C3.11715 31.4133 3.98542 31.9333 5.20101 32.1066C6.4166 31.9333 7.45853 31.5866 8.50046 30.72C9.02143 30.3733 9.36874 29.8533 9.5424 29.16V28.12C9.5424 27.8666 9.44889 27.7066 9.32867 27.5C9.28859 27.4266 9.24184 27.3466 9.19509 27.2533C8.84778 26.7333 8.15315 26.3866 7.45853 26.3866C6.93757 26.3866 6.24294 26.56 5.89563 26.9066V27.08C5.89563 27.2533 5.89563 27.2533 6.06929 27.2533C7.11122 27.4266 7.80584 27.6 7.9795 28.12C7.9795 28.2933 8.15315 28.4666 8.15315 28.4666V28.8133C8.15315 29.16 7.9795 29.3333 7.63219 29.68C7.11122 30.2 6.24294 30.3733 5.54832 30.3733C4.8537 30.3733 3.98542 29.8533 3.46446 29.3333C2.24887 28.2933 2.24887 26.3866 3.11715 25C3.63811 24.3066 4.15908 23.7866 4.8537 23.44C5.54832 23.0933 6.24294 22.92 7.11122 23.2666C8.67412 23.6133 10.0634 24.8266 10.758 26.3866C10.9316 26.9066 10.9316 27.9466 10.9316 28.9866C10.9316 29.8533 10.9316 30.8933 11.1053 31.76V42.3733C10.9984 42.3466 10.8782 42.3266 10.758 42.3266H7.63219C6.93757 42.3266 6.4166 42.8466 6.4166 43.54V44.7533C6.4166 45.62 6.93757 45.9666 7.63219 45.9666H10.758C11.4526 45.9666 11.9736 45.4466 11.9736 44.7533V43.8866H39.3911V44.7533C39.3911 45.4466 39.9121 45.9666 40.6067 45.9666H43.7325C44.4271 45.9666 44.9481 45.62 44.9481 44.7533V43.54C44.9481 42.8466 44.4271 42.3266 43.7325 42.3266H40.6067C40.4865 42.3266 40.3662 42.34 40.2594 42.3733V31.76C40.2594 30.8933 40.2594 29.8533 40.433 28.9866C40.433 28.12 40.6067 27.08 40.7803 26.3866C41.3013 24.8266 42.8642 23.6133 44.4271 23.2666C45.2954 23.0933 45.99 23.0933 46.6846 23.44C47.3792 23.7866 48.0739 24.3066 48.4212 25C49.2895 26.3866 49.2895 28.12 48.0739 29.3333C47.5529 29.8533 46.6846 30.3733 45.99 30.3733C45.2954 30.3733 44.4271 30.2 43.9061 29.68C43.5588 29.5066 43.3852 29.16 43.3852 28.8133V28.4666C43.3852 28.2933 43.5588 28.12 43.5588 28.12C43.7325 27.6 44.4271 27.4266 45.469 27.2533H45.6427V26.9066C45.2954 26.56 44.7744 26.3866 44.0798 26.3866C43.5588 26.3866 42.6905 26.7333 42.3432 27.2533C42.2965 27.3466 42.2497 27.4266 42.2097 27.5C42.0894 27.7066 41.9959 27.8666 41.9959 28.12C41.8824 28.3533 41.9158 28.58 41.9558 28.8133C41.9759 28.9266 41.9959 29.0466 41.9959 29.16C42.1696 29.8533 42.5169 30.3733 43.0379 30.72C43.9061 31.5866 45.1217 31.9333 46.3373 31.76C47.5529 31.5866 48.5948 31.0666 49.2895 30.2C50.1577 29.5066 50.6787 28.2933 50.6787 27.08C50.6787 26.2133 50.3314 25.1733 49.8104 24.3066C49.4631 23.0933 48.9421 21.7066 48.0739 20.4933C47.2056 19.1066 46.3373 17.8933 45.1217 16.68C44.4271 16.16 43.7325 15.64 42.8642 15.4666C41.9959 15.2933 40.954 15.4666 40.0857 15.9866C38.5228 17.0266 38.0019 18.76 37.8282 20.32C37.8282 20.4933 38.0018 20.6666 38.1755 20.84C38.3492 20.84 38.6965 20.84 38.6965 20.4933C39.2174 19.1066 39.9121 17.72 40.954 17.2C41.9959 16.5066 43.2115 16.8533 44.2534 17.8933C45.2954 18.76 46.1637 19.9733 47.0319 21.36C47.1188 21.4466 47.1588 21.5333 47.2056 21.62C47.2457 21.7066 47.2924 21.7933 47.3792 21.88C46.3373 21.36 45.1217 21.1866 44.0798 21.5333C41.9959 22.0533 40.2594 23.6133 39.3911 25.6933C39.0438 26.9066 39.0438 27.7733 39.0438 28.8133V31.76C39.0438 33.6666 39.0438 35.5733 39.2174 37.4733L39.3911 40.42V42.1533H11.9736V40.42L12.1472 37.4733C12.1472 36.66 12.1806 35.8533 12.214 35.04C12.2474 35.0533 12.2808 35.0533 12.3209 35.0533ZM45.1217 41.46L45.8163 33.4933C45.8163 32.9733 45.469 32.8 45.1217 32.8C44.7744 32.8 44.4271 33.1466 44.4271 33.4933V41.46C44.4271 41.6333 44.6008 41.8066 44.7744 41.8066C44.9481 41.8066 45.1217 41.6333 45.1217 41.46ZM30.5413 23.2733C32.1042 23.4466 33.6671 23.62 35.0564 23.9666C35.5774 24.14 35.9247 23.9666 35.9247 23.4466C36.0983 23.1 35.9247 22.7533 35.5774 22.58C33.8408 21.7133 32.2779 21.54 30.5413 21.3666C29.9536 21.3666 29.3725 21.3466 28.7914 21.3266C27.656 21.2866 26.5406 21.2533 25.5053 21.3666L25.0779 21.4133C23.6285 21.5733 22.0656 21.7466 20.643 22.06C19.0801 22.2333 17.5172 22.7533 15.9543 23.2733C15.7806 23.4466 15.7806 23.4466 15.7806 23.62C15.7806 23.7933 15.9543 23.7933 16.1279 23.7933C17.8645 23.62 19.4274 23.4466 20.9903 23.2733C21.8786 23.2733 22.7268 23.2266 23.5484 23.18C24.3298 23.14 25.0912 23.1 25.8526 23.1C27.4155 23.1 28.9784 23.1 30.5413 23.2733ZM7.11122 33.4933V41.46C7.11122 41.6333 6.93757 41.8066 6.76391 41.8066C6.59025 41.8066 6.4166 41.6333 6.4166 41.46L5.72198 33.4933C5.72198 33.1466 6.06929 32.6266 6.4166 32.6266C6.76391 32.6266 7.11122 32.9733 7.11122 33.4933Z" fill="#2D2D2D"/>
</svg>
