<svg width="48" height="48" viewBox="0 0 48 48" fill="none" xmlns="http://www.w3.org/2000/svg">
<g clip-path="url(#clip0_585_2452)">
<path d="M14.8964 9.40135C14.1682 12.2129 14.1682 15.1636 14.8964 17.9751C15.5468 20.7264 17.0606 23.1973 19.2164 25.0262C20.2362 25.8627 21.4557 26.4199 22.7556 26.6434C24.0555 26.8668 25.3911 26.7487 26.6316 26.3007C29.1921 25.207 31.2317 23.1673 32.3254 20.6069C33.5806 17.9141 34.1068 14.939 33.8511 11.9791C33.5955 9.01921 32.5671 6.17832 30.8688 3.74066C30.8688 3.74066 30.8688 3.5917 30.8688 3.55859C30.8923 3.53979 30.9215 3.52955 30.9516 3.52955C30.9817 3.52955 31.0109 3.53979 31.0343 3.55859C33.3809 5.75354 34.9348 8.66352 35.4537 11.8345C36.0432 15.0897 35.7048 18.4452 34.4771 21.5172C33.8779 23.1328 32.9552 24.6091 31.7655 25.8556C30.5759 27.1022 29.1443 28.0928 27.5585 28.7669C25.88 29.4235 24.052 29.6012 22.2785 29.28C20.5329 28.9545 18.8984 28.1914 17.5281 27.062C14.9432 24.8544 13.1911 21.829 12.5626 18.4882C11.8628 15.2487 12.0516 11.8803 13.1088 8.73928C14.1052 5.59818 16.2039 2.92336 19.0178 1.20825C20.4246 0.3868 22.0301 -0.0322184 23.6589 -0.0030282C25.2877 0.026162 26.8772 0.502438 28.2537 1.37377C28.291 1.38913 28.3207 1.41869 28.3362 1.45594C28.3517 1.49319 28.3518 1.53507 28.3364 1.57239C28.3211 1.6097 28.2915 1.63938 28.2542 1.6549C28.217 1.67042 28.1751 1.67051 28.1378 1.65515C26.7949 1.02256 25.309 0.75526 23.8299 0.880217C22.3507 1.00517 20.9307 1.51796 19.713 2.36687C17.3456 4.08735 15.6443 6.57199 14.8964 9.40135ZM45.1033 34.2289C42.7045 31.4942 39.7393 29.3141 36.4137 27.84C36.3599 27.8226 36.302 27.8228 36.2484 27.8407C36.1948 27.8586 36.1483 27.8931 36.1157 27.9393C36.0846 27.9946 36.0758 28.0597 36.0912 28.1213C36.1066 28.1828 36.145 28.2362 36.1985 28.2703C39.2282 30.0395 41.8778 32.3909 43.9943 35.1889C45.009 36.4849 45.7266 37.9879 46.0964 39.5917C46.2288 40.2837 46.1716 40.9986 45.9309 41.6607C45.6652 42.2714 45.2056 42.7775 44.6233 43.1007C43.1754 43.8468 41.606 44.3288 39.9888 44.5241C38.2668 44.7876 36.5319 44.9589 34.7916 45.0372C31.2826 45.2358 27.724 45.2689 24.1654 45.2689C20.6068 45.2689 17.0647 45.2689 13.5392 45.0703C11.7773 45.0053 10.0203 44.8451 8.27573 44.5903C6.64351 44.4062 5.0542 43.9473 3.57504 43.2331C2.9523 42.9109 2.45286 42.3928 2.15374 41.7586C1.85462 41.1245 1.77244 40.4096 1.91987 39.7241C2.24956 38.104 2.94599 36.5809 3.95573 35.2717C6.05076 32.4393 8.68986 30.0535 11.7185 28.2538C11.7373 28.2303 11.7475 28.2011 11.7475 28.171C11.7475 28.1409 11.7373 28.1117 11.7185 28.0882C11.7077 28.0772 11.6948 28.0685 11.6806 28.0625C11.6664 28.0565 11.6511 28.0535 11.6357 28.0535C11.6203 28.0535 11.6051 28.0565 11.5908 28.0625C11.5766 28.0685 11.5638 28.0772 11.553 28.0882C8.19069 29.5332 5.18942 31.7036 2.764 34.4441C1.48092 35.8625 0.550867 37.5639 0.049522 39.4096C-0.192086 40.4671 -0.117255 41.5723 0.264694 42.5876C0.709357 43.6118 1.45374 44.4773 2.39987 45.0703C4.07198 46.0412 5.91503 46.6817 7.82883 46.9572C9.61959 47.2833 11.4262 47.5153 13.2412 47.6524C16.8661 47.9172 20.4578 47.9669 24.033 48C27.6081 48.0331 31.2164 48 34.8412 47.6689C36.6454 47.5034 38.4495 47.3214 40.2868 46.9738C42.2133 46.6797 44.0634 46.0105 45.7323 45.0041C46.6811 44.3804 47.406 43.47 47.8012 42.4055C48.1795 41.3775 48.2485 40.2612 47.9999 39.1945C47.4637 37.3284 46.4938 35.6156 45.1695 34.1958L45.1033 34.2289Z" fill="#2D2D2D"/>
</g>
<defs>
<clipPath id="clip0_585_2452">
<rect width="48" height="48" fill="white"/>
</clipPath>
</defs>
</svg>
