<svg width="48" height="48" viewBox="0 0 48 48" fill="none" xmlns="http://www.w3.org/2000/svg">
<circle cx="24" cy="24" r="24" transform="rotate(180 24 24)" fill="#EFEFEF"/>
<path d="M30.2234 22.3509C30.4495 22.548 30.6343 22.7881 30.7668 23.0572C30.8994 23.3264 30.9772 23.6191 30.9957 23.9186C31.0142 24.218 30.973 24.5181 30.8745 24.8015C30.776 25.0849 30.6223 25.3459 30.4221 25.5694L30.2234 25.768L18.7931 35.8341C18.7425 35.8866 18.6818 35.9283 18.6146 35.9568C18.5475 35.9853 18.4753 36 18.4024 36C18.3295 36 18.2573 35.9853 18.1902 35.9568C18.123 35.9283 18.0623 35.8866 18.0117 35.8341C17.9386 35.7392 17.899 35.6227 17.899 35.503C17.899 35.3832 17.9386 35.2668 18.0117 35.1719L25.1506 24.0197L17.9587 12.8808C17.9177 12.8197 17.8896 12.7508 17.876 12.6784C17.8625 12.606 17.8638 12.5316 17.8799 12.4598C17.896 12.3879 17.9266 12.3201 17.9697 12.2604C18.0129 12.2007 18.0677 12.1505 18.1309 12.1126C18.2258 12.0396 18.3422 12 18.462 12C18.5818 12 18.6982 12.0396 18.7931 12.1126L30.2234 22.3509Z" fill="#2D2D2D"/>
</svg>
