<svg width="57" height="48" viewBox="0 0 57 48" fill="none" xmlns="http://www.w3.org/2000/svg">
<path d="M56.6501 39.9707C56.0804 40.5185 55.3648 40.7196 54.6145 40.7751C52.6831 40.9138 50.7517 40.9138 48.8203 40.7266C48.2993 40.678 47.938 40.4631 47.674 39.9984C46.8264 38.5214 46.1595 36.9611 45.4995 35.3939C42.4982 28.286 39.8443 21.0325 37.1209 13.8136C36.7874 12.9329 36.447 12.0522 36.1204 11.1646C36.0301 10.915 35.8912 10.7901 35.6063 10.811C34.6615 10.8664 33.7166 10.908 32.7718 10.9427C32.5356 10.9496 32.473 11.0883 32.473 11.2964C32.4661 11.9066 32.4383 12.5169 32.4383 13.1271C32.4314 16.525 32.4105 19.9229 32.4453 23.3209C32.5217 30.9697 32.4939 38.6185 32.4939 46.2673C32.4939 46.5793 32.48 46.8914 32.4869 47.1965C32.4939 47.5294 32.341 47.668 32.0215 47.7166C30.8543 47.8761 29.6802 47.9732 28.4991 47.9801C27.2972 47.987 26.0953 48.0633 24.9004 47.8622C24.0875 47.7235 23.9833 47.6056 23.8513 46.7874C23.6846 45.7402 23.6359 44.6931 23.6012 43.6391C23.4692 39.6795 23.49 35.7129 23.5456 31.7533C23.5664 30.2207 23.5664 28.6882 23.5942 27.1557C23.6429 24.2917 23.6637 21.4277 23.7401 18.5638C23.7818 16.9758 23.761 15.3878 23.8027 13.7997C23.8235 13.0092 23.8235 12.2256 23.8513 11.4351C23.8652 11.1299 23.7471 11.0329 23.4553 10.9982C22.6008 10.9011 21.7462 10.8872 20.8986 10.804C20.5443 10.7693 20.3915 10.9011 20.2734 11.227C19.0715 14.4377 17.8626 17.6484 16.6399 20.8522C14.3333 26.8991 11.9503 32.9183 9.49096 38.9028C9.44232 39.0276 9.3798 39.1455 9.34506 39.2772C9.15053 40.0747 8.59474 40.47 7.83747 40.6572C7.17052 40.8167 6.49661 40.8653 5.82271 40.8861C4.12059 40.9485 2.41847 40.893 0.744144 40.5255C-0.0270201 40.3521 -0.131231 40.1857 0.125824 39.4367C0.94562 37.0166 1.821 34.6242 2.73806 32.2387C4.66249 27.2458 6.71199 22.3015 8.67116 17.3225C9.60906 14.937 10.5261 12.5377 11.4015 10.1314C11.4849 9.90253 11.4501 9.79158 11.207 9.7153C10.7901 9.58354 10.3594 9.52113 9.94254 9.41711C8.85179 9.16053 7.84441 8.71672 6.87872 8.14809C5.69766 7.45463 5.06544 5.05528 6.11451 3.72385C6.68419 3.00266 7.38589 2.49644 8.25431 2.19825C9.70633 1.71283 11.207 1.45625 12.7076 1.19274C14.3819 0.901491 16.0563 0.603305 17.7445 0.409138C18.9464 0.270447 20.1553 0.173364 21.3641 0.110953C21.9963 0.07628 22.6285 0.0346727 23.2608 0C25.9286 0 28.6033 0 31.2711 0C31.9103 0.104018 32.5564 0.0693455 33.2025 0.0970836C35.4118 0.194167 37.6211 0.353662 39.8234 0.568633C42.2203 0.804407 44.5894 1.15113 46.9167 1.78218C47.8685 2.03876 48.8342 2.28146 49.7096 2.75995C50.321 3.09281 50.7309 3.57129 50.8143 4.28555C50.8837 4.86111 50.9393 5.42975 50.9185 6.01225C50.9046 6.46993 50.7587 6.87907 50.4599 7.23273C50.0431 7.71121 49.5359 8.05794 48.9871 8.36306C47.8547 8.98717 46.6458 9.3755 45.3744 9.60434C44.8881 9.69449 44.8881 9.70836 45.0618 10.173C46.0553 12.815 47.2016 15.3878 48.2576 18.0021C50.8212 24.3541 53.2389 30.7616 55.7052 37.1553C56.0109 37.9389 56.261 38.7502 56.6431 39.5061C56.6501 39.6586 56.6501 39.8181 56.6501 39.9707ZM31.2156 19.2919C31.16 16.213 31.1322 13.7581 31.16 11.3033C31.16 11.0329 31.0558 10.9982 30.8265 10.9982C29.0827 11.0051 27.332 11.0051 25.5881 10.9982C25.2825 10.9982 25.2199 11.1091 25.213 11.3865C25.1852 12.5654 25.1366 13.7373 25.1018 14.9162C25.0324 17.378 24.949 19.8397 24.9004 22.3015C24.8656 24.0421 24.81 25.7826 24.7684 27.5232C24.7058 30.0196 24.6641 32.5161 24.6294 35.0125C24.6086 36.8779 24.6155 38.7433 24.6155 40.6087C24.6155 42.5504 24.6225 44.492 24.8239 46.4268C24.8865 47.0578 25.0046 47.1826 25.6298 47.2797C26.9498 47.4877 28.2699 47.4115 29.5899 47.3144C30.0206 47.2797 30.4513 47.245 30.8751 47.141C31.0836 47.0925 31.2086 46.9954 31.2156 46.7596C31.2503 45.9483 31.3198 45.1439 31.3198 44.3325C31.3198 40.9346 31.3615 37.5367 31.292 34.1388C31.2364 31.3095 31.2781 28.4802 31.2295 25.6509C31.1808 23.3278 31.2156 20.9978 31.2156 19.2919ZM26.6789 7.63493C28.4505 7.68347 30.2151 7.59332 31.9867 7.58639C34.0015 7.57252 36.0093 7.51011 38.0171 7.32288C40.2681 7.11484 42.4982 6.83052 44.7144 6.37285C46.1664 6.07466 47.5976 5.70019 48.9107 4.98594C49.5915 4.61841 49.6054 4.13299 48.9662 3.69611C48.8551 3.61983 48.737 3.55742 48.6189 3.49501C48.0353 3.19682 47.41 2.98879 46.7778 2.80849C44.5477 2.17051 42.2689 1.78911 39.9832 1.44932C37.4266 1.07485 34.856 0.894556 32.2785 0.825211C29.7983 0.7628 27.3181 0.741996 24.8378 0.811342C23.2677 0.852949 21.7045 0.91536 20.1414 1.03325C17.9043 1.19968 15.6742 1.48399 13.4649 1.8862C11.7489 2.19825 10.0329 2.53111 8.39326 3.14828C8.0181 3.28697 7.64294 3.43953 7.33725 3.70305C7.00378 3.9943 6.98293 4.32715 7.28167 4.66001C7.44147 4.83338 7.62905 4.97207 7.83747 5.08302C8.61558 5.50603 9.45622 5.75567 10.3108 5.97758C12.3811 6.51154 14.4862 6.85133 16.6051 7.10097C18.2795 7.30207 19.9607 7.47544 21.649 7.55865C23.3163 7.64187 24.9976 7.67654 26.6789 7.63493ZM4.66249 40.1649C5.44755 40.1787 6.28819 40.1233 7.12883 40.0262C7.43452 39.9915 7.64294 39.8875 7.76799 39.5893C8.00421 39.0484 8.27516 38.5283 8.50442 37.9874C10.4914 33.3829 12.3325 28.709 14.1666 24.0351C15.8479 19.7496 17.5013 15.4432 19.0993 11.123C19.2451 10.7208 19.2313 10.7139 18.8005 10.6653C18.1683 10.596 17.543 10.5128 16.9178 10.4365C15.6742 10.2839 14.4306 10.0828 13.1731 10.0551C12.7979 10.0482 12.6242 10.1799 12.4922 10.5266C10.6859 15.2699 8.77537 19.9715 6.89957 24.68C5.00292 29.4441 3.14795 34.2289 1.38331 39.0484C1.18878 39.5754 1.25131 39.7003 1.77931 39.8806C1.94605 39.936 2.11973 39.9776 2.29342 40.0123C3.06458 40.1649 3.8288 40.1718 4.66249 40.1649ZM51.2519 40.0886C52.4191 40.0747 53.5863 40.047 54.7396 39.832C55.2815 39.728 55.3023 39.6864 55.1217 39.1802C53.9962 35.9764 52.7387 32.8143 51.5021 29.6521C49.654 24.9366 47.7921 20.235 45.9233 15.5264C45.2494 13.8344 44.6172 12.1285 43.8668 10.4642C43.6376 9.958 43.6098 9.96494 43.047 10.0273C42.2759 10.1175 41.4978 10.1868 40.7266 10.277C39.6567 10.4018 38.5868 10.5405 37.5169 10.6584C37.2946 10.6861 37.2459 10.7624 37.3293 10.9566C37.364 11.0467 37.3918 11.1438 37.4266 11.2409C38.0588 12.7942 38.6979 14.3406 39.3163 15.9009C42.0119 22.6343 44.4435 29.4649 47.0765 36.2122C47.4934 37.2801 47.9241 38.3411 48.4243 39.3674C48.5911 39.7072 48.8203 39.9291 49.2233 39.9776C49.8972 40.0609 50.5711 40.1025 51.2519 40.0886ZM27.9989 10.1799C31.417 10.2215 34.8213 10.0759 38.2186 9.7153C40.671 9.45178 43.1165 9.13973 45.5342 8.63351C46.7222 8.38386 47.8963 8.08568 48.9454 7.43383C49.4734 7.10097 49.7513 6.67103 49.6471 6.01225C49.5985 5.71406 49.529 5.66552 49.258 5.77647C47.9102 6.33124 46.5277 6.78198 45.0965 7.0871C42.7413 7.57946 40.3653 7.86377 37.9685 8.09261C35.391 8.33532 32.8065 8.50868 30.2151 8.58496C28.5825 8.63351 26.9498 8.61964 25.3102 8.55029C23.2538 8.46014 21.2043 8.34226 19.1548 8.14115C16.1466 7.8499 13.1523 7.41996 10.1926 6.78892C9.29643 6.60168 8.41411 6.37285 7.62905 5.88743C7.44147 5.76954 7.23304 5.67939 7.02462 5.60311C6.67725 5.47135 6.51746 5.59618 6.53135 5.97064C6.5383 6.31737 6.67725 6.61555 6.90651 6.87213C7.19136 7.19112 7.54568 7.41996 7.92084 7.61413C8.79621 8.07181 9.74106 8.32145 10.6929 8.56416C12.3116 8.9733 13.9651 9.18134 15.6186 9.40324C17.5569 9.66675 19.5022 9.88866 21.4544 10.0204C23.6359 10.173 25.8174 10.2076 27.9989 10.1799Z" fill="#2D2D2D"/>
</svg>
