<svg width="28" height="29" viewBox="0 0 28 29" fill="none" xmlns="http://www.w3.org/2000/svg">
<path d="M26.8284 25.4613C27.2156 26.1792 27.3336 27.0188 27.16 27.8206C27.1321 27.9683 27.0614 28.1037 26.9572 28.209C26.8531 28.3143 26.7205 28.3846 26.5768 28.4104C25.7913 28.5752 24.9744 28.4277 24.2898 27.9975C23.7983 27.5964 23.3323 27.1629 22.8948 26.6999C21.9986 25.8016 21.1475 24.8566 20.3448 23.8687C19.5215 22.8778 18.7668 21.8397 17.9664 20.8251L16.8229 19.3034L16.2397 18.5484C16.1144 18.4223 16.0146 18.272 15.9459 18.106C15.8772 17.9399 15.841 17.7615 15.8395 17.581C15.8395 17.2682 15.9599 16.9681 16.1744 16.7469C16.3888 16.5257 16.6797 16.4014 16.983 16.4014C17.1561 16.4065 17.3265 16.4478 17.4837 16.5229C17.641 16.5979 17.7818 16.705 17.8977 16.8378L18.6296 17.4631L20.0704 18.7253C21.0309 19.5629 22.0257 20.3769 22.952 21.2498C23.8782 22.1228 24.793 23.0193 25.6506 23.9631C26.0767 24.4334 26.4702 24.934 26.8284 25.4613ZM7.3891 18.1591C6.19215 17.9548 5.04947 17.4958 4.03368 16.8114C3.0179 16.127 2.15122 15.2321 1.48872 14.1836C0.516503 12.6819 -0.00162772 10.9162 3.84144e-06 9.11037C0.00163541 7.30454 0.522956 5.53986 1.49788 4.04004C2.4728 2.54022 3.85743 1.37279 5.47624 0.685753C7.09505 -0.00128935 8.87514 -0.17701 10.5909 0.180866C12.7909 0.646144 14.7322 1.96868 16.011 3.87324C17.319 5.78072 17.8787 8.12824 17.5776 10.444C17.4181 11.6273 17.0328 12.7661 16.444 13.7948C15.8552 14.8234 15.0745 15.7214 14.1471 16.4368C13.1783 17.1709 12.0788 17.7009 10.9114 17.9964C9.74395 18.292 8.53151 18.3472 7.34336 18.1591H7.3891ZM7.76645 15.7407C9.56367 16.1629 11.4497 15.8364 13.0151 14.8324C14.634 13.7766 15.7938 12.115 16.2511 10.1963C16.4828 9.2085 16.514 8.18197 16.3428 7.18115C16.1716 6.18032 15.8017 5.22682 15.2563 4.3805C14.7098 3.53707 14.0027 2.81715 13.1781 2.26454C12.3534 1.71193 11.4283 1.33818 10.4592 1.16603C9.49011 0.993883 8.49718 1.02693 7.54084 1.26317C6.5845 1.49942 5.68474 1.93391 4.8963 2.54021C3.38645 3.70197 2.38129 5.43084 2.09874 7.35203C1.81619 9.27321 2.27903 11.2319 3.3869 12.8034C4.45704 14.2938 6.01181 15.3365 7.76645 15.7407Z" fill="#2D2D2D"/>
</svg>
